<svg xmlns="http://www.w3.org/2000/svg" fill="none" viewBox="0 0 30 30"><path fill="currentColor" d="M15 0a15 15 0 1 0 0 30 15 15 0 0 0 0-30Zm7.6 16.6c.7.7 1.4 1.3 2 2.1.4.3.6.7.8 1 .3.6 0 1.2-.5 1.3h-3c-.8 0-1.5-.3-2-.8l-1.2-1.4-.6-.5c-.4-.2-.7-.2-1 .3-.2.4-.3 1-.3 1.4 0 .7-.3 1-1 1a7.9 7.9 0 0 1-7.3-3.8 37.3 37.3 0 0 1-4-6.9c-.2-.5 0-.8.6-.9h3c.4 0 .7.3.8.7.6 1.3 1.2 2.6 2 3.8l.8.8c.4.2.7.2.8-.2.2-.3.2-.6.2-.8v-2.8c-.1-.6-.4-1-1-1-.3-.1-.3-.2-.1-.4.2-.3.5-.5 1-.5H16c.5.1.7.4.7 1v3.8c0 .2.1.8.5 1 .3 0 .5-.2.7-.4.9-.8 1.4-1.9 2-3l.6-1.4c.2-.4.4-.6.8-.6H24.9c.6.2.8.4.6 1-.3.8-.8 1.5-1.3 2.2L22.4 15c-.5.7-.4 1.1.2 1.7Z"/></svg>
