<svg xmlns="http://www.w3.org/2000/svg" fill="none" viewBox="0 0 157 26"><g clip-path="url(#a)"><path fill="#008BD5" d="M27.5 23.1V3.8h3.2v16.6h8.2v2.7H27.5Zm25.6 0H42.2V3.8h11v2.7h-7.8v5.2h7.2v2.7h-7.2v6H53v2.7Zm12-10.5h7.2v9.7a21.5 21.5 0 0 1-6.8 1c-2 0-3.6-.3-5-1-1.3-.9-2.4-2-3-3.5-.8-1.5-1.1-3.2-1.1-5.3 0-2 .4-3.8 1.2-5.3.7-1.5 1.9-2.6 3.4-3.4 1.5-.8 3.3-1.2 5.4-1.2a14.3 14.3 0 0 1 5.7 1.1l-1 2.6a12.5 12.5 0 0 0-4.8-1c-1.4 0-2.6.2-3.6.8a6 6 0 0 0-2.2 2.6c-.6 1-.9 2.3-.9 3.8 0 1.4.3 2.7.7 3.8.4 1 1.1 1.9 2 2.5 1 .6 2.1.9 3.6.9a12.4 12.4 0 0 0 3.3-.4v-5H65v-2.7Zm10.2 4.6v-2.6h6.8v2.6h-6.8Zm17 6H89V6.4h-5.6V3.8h14.4v2.7h-5.6v16.6Zm19.5 0h-11V3.7h11v2.7H104v5.2h7.3v2.7H104v6h7.8V23Zm12.4-17c-1 0-1.8.2-2.5.5a5 5 0 0 0-1.9 1.5c-.5.6-.8 1.4-1.1 2.3-.3.9-.4 1.9-.4 3 0 1.5.2 2.8.6 3.8.5 1.1 1.1 2 2 2.5.8.6 2 .9 3.2.9l2.4-.3 2.4-.6v2.7a12.3 12.3 0 0 1-5.1.9 9 9 0 0 1-5-1.3c-1.2-.8-2.2-2-2.8-3.4-.7-1.5-1-3.2-1-5.2 0-1.5.2-2.8.6-4a9 9 0 0 1 1.8-3.2c.8-.9 1.7-1.5 2.9-2a10 10 0 0 1 3.9-.7 12.4 12.4 0 0 1 5.4 1.2l-1 2.6-2.2-.8c-.7-.2-1.5-.4-2.2-.4Zm24 17h-3.1v-8.8h-8.9v8.7h-3.1V3.8h3.1v8h8.9v-8h3.2v19.3Z"/><path fill="#008BD2" d="m13.6 1.5-.1.1a24 24 0 0 0-1.2 2.1c-.1.2-.1.2-.6.2h-.5c-.2 0-.2 0-.9-1l-.7-1c0-.2-.1-.2-.2-.2L7 2.5l-.1.4.1 2v.2l-.4.4-.5.3-1.4-.5C3.6 5 3.6 5 3.5 5A27.5 27.5 0 0 0 2 7l.7 1 .8 1-.2.8c-.2.5-.3.6-.4.6a33.1 33.1 0 0 1-2.6.6 12 12 0 0 0-.3 2.4 80.2 80.2 0 0 0 2.4 1c.2 0 .2.1.3.7l.1.7v.2l-1 .9a27.6 27.6 0 0 0-1 1l.6 1a17.8 17.8 0 0 0 .6 1l1.3-.2c1.2-.3 1.2-.3 1.4-.2l1 1-.1 1C5 23.2 5 23 5.2 23.2v.1a15.9 15.9 0 0 0 2.1 1 28.4 28.4 0 0 0 1.8-1.7l.9.1.7.2.5 1.3.5 1.2h2.1c.2 0 .3-.1.3-.3a33.3 33.3 0 0 0 .6-2.4c0-.1.1-.2.7-.4l.8-.2a31.6 31.6 0 0 1 2 1.6l.7-.4 1.3-1v-.1l-.4-1.3-.4-1.2.3-.6.3-.5h1.5l1.2.2.2-.1a60.3 60.3 0 0 0 .7-2.5 28.2 28.2 0 0 0-2-1.6h-.1V14l.1-.6 1.2-.7A49.4 49.4 0 0 0 24 12a56.9 56.9 0 0 0-.6-2.4l-2-.2-.8-.1-.4-.8v-.2a31.5 31.5 0 0 1 1.3-2.2v-.2a62 62 0 0 0-1.9-1.8l-1.2.6-1 .6-.6-.1-.5-.4V3.4L16 2.2c0-.2.1-.1-1.8-.6a14 14 0 0 0-.7 0Zm-.8 5c.6 0 1 .2 1.4.3a7 7 0 0 1-1.4 13.7h-1.6a7 7 0 0 1 1.6-14Z"/></g><defs><clipPath id="a"><path fill="#fff" d="M0 0h157v26H0z"/></clipPath></defs></svg>