<?xml version="1.0" encoding="utf-8"?><svg viewBox="0 0 1280 1278" xmlns="http://www.w3.org/2000/svg" xmlns:xlink="http://www.w3.org/1999/xlink"><style>:root>svg{display:none}:root>svg:target{display:block}</style><svg version="1.0" viewBox="0 0 1280 1278" id="gear" xmlns="http://www.w3.org/2000/svg"><path fill="currentColor" d="M723.5 1.4c-1.6.8-4.2 2.6-5.6 4.2-1.4 1.6-15.3 26.7-30.9 55.9a3470.6 3470.6 0 0 1-31.6 58.2c-5.3 8.4-4.9 8.3-32.8 9.4l-24.7 1.1-5.3-2.6c-5.3-2.6-5.9-3.4-41.6-54.9l-38.6-55.3c-2.9-3.9-8-6.4-13.2-6.4-4.3 0-117.4 37.6-121.3 40.3-5.8 4.1-7 8.9-5.9 23.5l8.1 102.9 1.2 15.3-2.9 5.7c-2.8 5.5-3.8 6.4-23.4 20a239.8 239.8 0 0 1-24 15.3c-8.2 2.4-9.2 2.1-73.6-24.6-66.1-27.4-64.2-26.7-72-23.2-3.8 1.8-78.1 94.2-79.6 99-.8 2.9-.8 4.8 0 7.7.8 2.5 15.2 22.3 40.2 55.2 33.8 44.6 39.1 52.1 40.1 56.4 1.4 6.5 1.4 6.5-11.6 37.5-11.5 27.7-14.1 31.6-21.9 34.4-2.3.8-32.4 6.6-67.1 12.8-66 11.8-66.3 11.9-70.7 17.9-5.2 7-18.1 126.8-13.9 129.3.6.4 29.3 11 63.7 23.6 34.4 12.6 64 23.8 65.7 24.8 6.6 3.8 8.1 8.1 14.1 41.3 3.1 16.9 5.6 32.8 5.6 35.5 0 3.1-.9 6.5-2.3 9.1-1.5 2.9-16.7 17.7-49.2 47.9-25.9 24-47.9 45.1-49 46.7a14.1 14.1 0 0 0-1.8 8.1c0 4.6 2.5 9.7 25.5 54.4a951.1 951.1 0 0 0 28.3 52.2c1.4 1.5 4.5 3.3 6.8 3.9 3.9 1.1 8.7.2 66.7-12.9 65.4-14.8 67.7-15.1 75-11.7 3.9 1.9 50.4 49.9 53.2 54.9 3.8 7 3.6 9-6.6 48.8-23.5 91.7-23 89.7-21.7 94a20 20 0 0 0 3.4 6.5c1.2 1.4 24.2 14.9 51.1 30 44.3 24.9 49.4 27.5 53.5 27.5a17 17 0 0 0 7.6-1.8c1.7-1.1 23-22.2 47.5-47.1a913.2 913.2 0 0 1 48.2-47.1c7.3-3.9 9.3-3.7 45.9 4.5 18.9 4.2 35.5 8.3 36.8 9.2 6.9 4.5 7.3 5.4 28.6 69.4 20.1 60.3 20.7 61.9 24.5 65.3 2.2 2 5.5 3.8 7.7 4.2 9.1 1.7 65.8-1.9 102-6.5 16.4-2.1 19.9-3.8 22.7-11.3.9-2.4 7.5-32.2 14.6-66.2 8.6-40.6 13.7-63 14.9-65 3.9-6.2 6.8-7.7 37.3-19.3 32.9-12.6 37.1-13.5 44.4-9.6 1.8 1 24.8 19.1 51 40.3 26.3 21.2 49.1 39.3 50.8 40.3 2.2 1.3 4.5 1.7 8.3 1.4 5.1-.3 6.2-1.1 34.9-22.8 58.3-44.1 63.8-48.4 65.7-51.1 1.1-1.4 2.2-4.8 2.4-7.5.5-4.4-1.5-10.2-22.7-65.8a1517.5 1517.5 0 0 1-23.7-64.5c-1-6.9 1.3-11.2 17.3-33.2a627.8 627.8 0 0 1 17.8-23.6c3.5-3.9 9.5-6.5 15.1-6.4 2.7 0 32.6 3 66.3 6.7l61.2 6.6 4.3-1.9a24 24 0 0 0 6-3.9c1.4-1.6 36.4-95.4 42.2-113.1 2.2-6.5.8-12-4.3-17.2-2-2.1-26.8-20.8-55.1-41.6-50.8-37.3-51.4-37.8-53.9-43.3l-2.5-5.5 1.2-21.5c1.6-28.1 1.8-29.4 5.5-34.8 3-4.3 5.3-5.6 61.3-33.7 32.1-16.1 59-29.9 59.9-30.6 2.2-1.9 5.4-8.5 5.4-11.2 0-4.2-25.9-121.7-27.5-124.8-.9-1.7-3.2-4.1-5.3-5.5-4.2-2.7.1-2.4-101.3-8.9-38.9-2.5-39.6-2.7-45.5-8.3-4.3-4.1-22.3-38-23-43.4-.4-2.7 0-6 .8-8.4a1674 1674 0 0 1 34.2-59.3c31.4-52.8 32.8-55.4 32.8-60.2-.1-2.7-.7-6-1.4-7.4-1.3-2.5-85-88.4-89.8-92.1a15.2 15.2 0 0 0-8-2.3l-5.7-.4-56.4 31.3c-31 17.2-58.2 31.9-60.4 32.7-6.9 2.4-11.4.9-30-9.5-18.8-10.5-20.8-12-23.7-17.7-2.6-5-2.5-3.7-4.9-75.1-2-59-2.1-61.1-4.3-65.5-3.7-7.5 3.6-5.3-98.4-29.6C745 3.4 729.9 0 728.7 0c-1.2.1-3.5.7-5.2 1.4zm-38.5 265a375.5 375.5 0 0 1 322.4 295.8c5.7 28.3 7 41.9 7 74.8.1 31-.4 38.6-4.5 63.5A374 374 0 0 1 807.5 973a373.4 373.4 0 0 1-124.5 37.2 602.3 602.3 0 0 1-88-.5 375.2 375.2 0 0 1-223-111.3 373.7 373.7 0 0 1 20.6-540.3 375.3 375.3 0 0 1 216.9-93c15.1-1.4 60.8-.6 75.5 1.3z"/></svg><svg fill="none" viewBox="0 0 157 26" id="logo" xmlns="http://www.w3.org/2000/svg"><g clip-path="url(#ba)"><path fill="currentColor" d="M27.5 23.1V3.8h3.2v16.6h8.2v2.7H27.5Zm25.6 0H42.2V3.8h11v2.7h-7.8v5.2h7.2v2.7h-7.2v6H53v2.7Zm12-10.5h7.2v9.7a21.5 21.5 0 0 1-6.8 1c-2 0-3.6-.3-5-1-1.3-.9-2.4-2-3-3.5-.8-1.5-1.1-3.2-1.1-5.3 0-2 .4-3.8 1.2-5.3.7-1.5 1.9-2.6 3.4-3.4 1.5-.8 3.3-1.2 5.4-1.2a14.3 14.3 0 0 1 5.7 1.1l-1 2.6a12.5 12.5 0 0 0-4.8-1c-1.4 0-2.6.2-3.6.8a6 6 0 0 0-2.2 2.6c-.6 1-.9 2.3-.9 3.8 0 1.4.3 2.7.7 3.8.4 1 1.1 1.9 2 2.5 1 .6 2.1.9 3.6.9a12.4 12.4 0 0 0 3.3-.4v-5H65v-2.7Zm10.2 4.6v-2.6h6.8v2.6h-6.8Zm17 6H89V6.4h-5.6V3.8h14.4v2.7h-5.6v16.6Zm19.5 0h-11V3.7h11v2.7H104v5.2h7.3v2.7H104v6h7.8V23Zm12.4-17c-1 0-1.8.2-2.5.5a5 5 0 0 0-1.9 1.5c-.5.6-.8 1.4-1.1 2.3-.3.9-.4 1.9-.4 3 0 1.5.2 2.8.6 3.8.5 1.1 1.1 2 2 2.5.8.6 2 .9 3.2.9l2.4-.3 2.4-.6v2.7a12.3 12.3 0 0 1-5.1.9 9 9 0 0 1-5-1.3c-1.2-.8-2.2-2-2.8-3.4-.7-1.5-1-3.2-1-5.2 0-1.5.2-2.8.6-4a9 9 0 0 1 1.8-3.2c.8-.9 1.7-1.5 2.9-2a10 10 0 0 1 3.9-.7 12.4 12.4 0 0 1 5.4 1.2l-1 2.6-2.2-.8c-.7-.2-1.5-.4-2.2-.4Zm24 17h-3.1v-8.8h-8.9v8.7h-3.1V3.8h3.1v8h8.9v-8h3.2v19.3Z"/><path fill="#000" d="m13.6 1.5-.1.1a24 24 0 0 0-1.2 2.1c-.1.2-.1.2-.6.2h-.5c-.2 0-.2 0-.9-1l-.7-1c0-.2-.1-.2-.2-.2L7 2.5l-.1.4.1 2v.2l-.4.4-.5.3-1.4-.5C3.6 5 3.6 5 3.5 5A27.5 27.5 0 0 0 2 7l.7 1 .8 1-.2.8c-.2.5-.3.6-.4.6a33.1 33.1 0 0 1-2.6.6 12 12 0 0 0-.3 2.4 80.2 80.2 0 0 0 2.4 1c.2 0 .2.1.3.7l.1.7v.2l-1 .9a27.6 27.6 0 0 0-1 1l.6 1a17.8 17.8 0 0 0 .6 1l1.3-.2c1.2-.3 1.2-.3 1.4-.2l1 1-.1 1C5 23.2 5 23 5.2 23.2v.1a15.9 15.9 0 0 0 2.1 1 28.4 28.4 0 0 0 1.8-1.7l.9.1.7.2.5 1.3.5 1.2h2.1c.2 0 .3-.1.3-.3a33.3 33.3 0 0 0 .6-2.4c0-.1.1-.2.7-.4l.8-.2a31.6 31.6 0 0 1 2 1.6l.7-.4 1.3-1v-.1l-.4-1.3-.4-1.2.3-.6.3-.5h1.5l1.2.2.2-.1a60.3 60.3 0 0 0 .7-2.5 28.2 28.2 0 0 0-2-1.6h-.1V14l.1-.6 1.2-.7A49.4 49.4 0 0 0 24 12a56.9 56.9 0 0 0-.6-2.4l-2-.2-.8-.1-.4-.8v-.2a31.5 31.5 0 0 1 1.3-2.2v-.2a62 62 0 0 0-1.9-1.8l-1.2.6-1 .6-.6-.1-.5-.4V3.4L16 2.2c0-.2.1-.1-1.8-.6a14 14 0 0 0-.7 0Zm-.8 5c.6 0 1 .2 1.4.3a7 7 0 0 1-1.4 13.7h-1.6a7 7 0 0 1 1.6-14Z"/></g><defs><clipPath id="ba"><path fill="#fff" d="M0 0h157v26H0z"/></clipPath></defs></svg><svg fill="none" viewBox="0 0 30 30" id="ok" xmlns="http://www.w3.org/2000/svg"><path fill="currentColor" d="M12.853 9.99a2.24 2.24 0 1 0 4.478 0 2.24 2.24 0 0 0-4.478 0Z"/><path fill="currentColor" fill-rule="evenodd" d="M15 30c8.284 0 15-6.716 15-15 0-8.284-6.716-15-15-15C6.716 0 0 6.716 0 15c0 8.284 6.716 15 15 15ZM9.675 9.99a5.417 5.417 0 1 1 10.834 0 5.417 5.417 0 0 1-10.834 0Zm10.866 8.204c-.069.055-1.368 1.082-3.537 1.524l3.274 3.244a1.473 1.473 0 1 1-2.082 2.085l-3.178-3.095-2.886 3.075c-.29.3-.675.45-1.06.45a1.473 1.473 0 0 1-1.06-2.495l3.107-3.247c-2.23-.431-3.583-1.485-3.653-1.541a1.473 1.473 0 0 1 1.843-2.298c.014.01 1.429 1.074 3.71 1.075 2.28-.001 3.666-1.064 3.68-1.075a1.473 1.473 0 0 1 1.842 2.298Z" clip-rule="evenodd"/></svg><svg fill="none" viewBox="0 0 23 23" id="phone" xmlns="http://www.w3.org/2000/svg"><path fill="currentColor" d="m22.4 15.7-6.4-.8-3 3A18.2 18.2 0 0 1 5 10l3-3L7.4.6H.7a20.5 20.5 0 0 0 21.7 21.7v-6.6Z"/></svg><svg fill="none" viewBox="0 0 46 46" id="telegram" xmlns="http://www.w3.org/2000/svg"><path fill="currentColor" d="M23 0a23 23 0 1 1 0 46 23 23 0 0 1 0-46Zm8 32.4c.4-1.3 2.3-14.3 2.6-16.8 0-.8-.2-1.3-.7-1.5-.5-.3-1.4-.2-2.4.2l-19.8 8.3c-1 .4-1.8.9-1.8 1.5 0 .4.2.7 1 1l3.8 1.1c1.1.3 2.4 0 3-.4.8-.4 9.4-6.2 10-6.7.6-.5 1 .2.6.7l-7.2 7c-1 1-.3 2 .4 2.3l6.7 4.5a4 4 0 0 0 2.3.8c.7 0 1-1 1.4-2h.1Z"/></svg><svg fill="none" viewBox="0 0 30 30" id="vk" xmlns="http://www.w3.org/2000/svg"><path fill="currentColor" d="M15 0a15 15 0 1 0 0 30 15 15 0 0 0 0-30Zm7.6 16.6c.7.7 1.4 1.3 2 2.1.4.3.6.7.8 1 .3.6 0 1.2-.5 1.3h-3c-.8 0-1.5-.3-2-.8l-1.2-1.4-.6-.5c-.4-.2-.7-.2-1 .3-.2.4-.3 1-.3 1.4 0 .7-.3 1-1 1a7.9 7.9 0 0 1-7.3-3.8 37.3 37.3 0 0 1-4-6.9c-.2-.5 0-.8.6-.9h3c.4 0 .7.3.8.7.6 1.3 1.2 2.6 2 3.8l.8.8c.4.2.7.2.8-.2.2-.3.2-.6.2-.8v-2.8c-.1-.6-.4-1-1-1-.3-.1-.3-.2-.1-.4.2-.3.5-.5 1-.5H16c.5.1.7.4.7 1v3.8c0 .2.1.8.5 1 .3 0 .5-.2.7-.4.9-.8 1.4-1.9 2-3l.6-1.4c.2-.4.4-.6.8-.6h3.6c.6.2.8.4.6 1-.3.8-.8 1.5-1.3 2.2L22.4 15c-.5.7-.4 1.1.2 1.7Z"/></svg></svg>